<?xml version="1.0" encoding="UTF-8" standalone="no"?>
<!-- Created with Inkscape (http://www.inkscape.org/) -->

<svg
   xmlns:dc="http://purl.org/dc/elements/1.1/"
   xmlns:cc="http://creativecommons.org/ns#"
   xmlns:rdf="http://www.w3.org/1999/02/22-rdf-syntax-ns#"
   xmlns:svg="http://www.w3.org/2000/svg"
   xmlns="http://www.w3.org/2000/svg"
   xmlns:sodipodi="http://sodipodi.sourceforge.net/DTD/sodipodi-0.dtd"
   xmlns:inkscape="http://www.inkscape.org/namespaces/inkscape"
   width="70.324043mm"
   height="8.1338701mm"
   viewBox="0 0 70.324043 8.1338701"
   version="1.1"
   id="svg8"
   inkscape:version="0.92.4 (5da689c313, 2019-01-14)"
   sodipodi:docname="justinribeiro-inkscape.svg">
  <defs
     id="defs2" />
  <sodipodi:namedview
     id="base"
     pagecolor="#ffffff"
     bordercolor="#666666"
     borderopacity="1.0"
     inkscape:pageopacity="0.0"
     inkscape:pageshadow="2"
     inkscape:zoom="1"
     inkscape:cx="-267.33817"
     inkscape:cy="-265.08931"
     inkscape:document-units="mm"
     inkscape:current-layer="layer1"
     showgrid="false"
     inkscape:window-width="2046"
     inkscape:window-height="2134"
     inkscape:window-x="0"
     inkscape:window-y="0"
     inkscape:window-maximized="0" />
  <metadata
     id="metadata5">
    <rdf:RDF>
      <cc:Work
         rdf:about="">
        <dc:format>image/svg+xml</dc:format>
        <dc:type
           rdf:resource="http://purl.org/dc/dcmitype/StillImage" />
        <dc:title></dc:title>
      </cc:Work>
    </rdf:RDF>
  </metadata>
  <g
     inkscape:label="Layer 1"
     inkscape:groupmode="layer"
     id="layer1"
     transform="translate(-41.629058,-70.561249)">
    <g
       aria-label="Justin Ribeiro"
       style="font-style:normal;font-weight:normal;font-size:10.58333302px;line-height:125%;font-family:sans-serif;letter-spacing:0px;word-spacing:0px;fill:#000000;fill-opacity:1;stroke:none;stroke-width:0.26458332px;stroke-linecap:butt;stroke-linejoin:miter;stroke-opacity:1"
       id="text817">
      <path
         d="m 47.385812,70.716278 v 0.506429 h -0.206706 q -0.330729,0 -0.527099,0.02067 -0.186036,0.01033 -0.289388,0.07235 -0.09302,0.05168 -0.124024,0.155029 -0.03101,0.09302 -0.03101,0.258382 v 3.896403 q 0,0.795817 -0.103353,1.312582 -0.09302,0.506429 -0.299723,0.837158 -0.589111,0.91984 -2.015381,0.91984 -0.981852,0 -1.539957,-0.465088 -0.289388,-0.248047 -0.454753,-0.609782 -0.165364,-0.37207 -0.165364,-0.764811 0,-0.289388 0.08268,-0.527099 0.08268,-0.248047 0.217041,-0.423747 0.144694,-0.1757 0.341064,-0.268717 0.196371,-0.103353 0.434082,-0.103353 0.372071,0 0.589112,0.227376 0.227376,0.217041 0.227376,0.54777 0,0.330729 -0.196371,0.558106 -0.186035,0.227376 -0.485758,0.227376 -0.08268,0 -0.1757,-0.01033 -0.08268,-0.01034 -0.248047,-0.05168 -0.06201,0 -0.103353,0.05168 -0.03101,0.05168 -0.03101,0.124023 0,0.103353 0.06201,0.248047 0.06201,0.134359 0.144694,0.248047 0.165365,0.227376 0.465088,0.361735 0.299723,0.124023 0.640788,0.124023 0.950846,0 1.27124,-0.950846 0.08268,-0.248047 0.113688,-0.620117 0.03101,-0.372071 0.03101,-1.085205 v -3.803386 q 0,-0.165364 -0.03101,-0.258382 -0.03101,-0.103353 -0.134358,-0.155029 -0.09302,-0.06201 -0.289388,-0.07235 -0.186036,-0.02067 -0.506429,-0.02067 h -0.206706 v -0.506429 z"
         style="font-style:normal;font-variant:normal;font-weight:normal;font-stretch:normal;font-size:10.58333302px;font-family:'Tibetan Machine Uni';-inkscape-font-specification:'Tibetan Machine Uni, Normal';font-variant-ligatures:normal;font-variant-caps:normal;font-variant-numeric:normal;font-feature-settings:normal;text-align:start;writing-mode:lr-tb;text-anchor:start;stroke-width:0.26458332px"
         id="path890" />
      <path
         d="m 47.819894,73.610158 1.891358,-0.113688 v 3.286621 q 0,0.227377 0,0.372071 0.01033,0.134358 0.02067,0.227376 0.02067,0.09302 0.05168,0.165364 0.03101,0.07235 0.08268,0.144694 0.113688,0.1757 0.310058,0.258383 0.196371,0.08268 0.454753,0.08268 0.403076,0 0.702799,-0.196371 0.310059,-0.206705 0.475424,-0.56844 0.124023,-0.268718 0.186035,-0.558106 0.06201,-0.299723 0.06201,-0.764811 v -1.333252 q 0,-0.3514 -0.09302,-0.444417 -0.08268,-0.103353 -0.382406,-0.103353 h -0.54777 v -0.454753 l 2.025716,-0.113688 v 3.77238 q 0,0.268717 0.02067,0.423746 0.03101,0.15503 0.103353,0.237712 0.07235,0.08268 0.206705,0.113688 0.134359,0.02067 0.361735,0.02067 h 0.268718 v 0.465088 l -1.963705,0.07235 v -0.89917 q -0.361735,0.527099 -0.764811,0.764811 -0.392741,0.227376 -0.930175,0.227376 -0.496094,0 -0.868164,-0.1757 -0.372071,-0.186035 -0.589112,-0.516764 -0.124023,-0.186035 -0.165364,-0.413411 -0.04134,-0.227377 -0.04134,-0.640788 v -2.335775 q 0,-0.1757 -0.02067,-0.279053 -0.01033,-0.113688 -0.06201,-0.165364 -0.05168,-0.06201 -0.144694,-0.08268 -0.08268,-0.02067 -0.237711,-0.02067 h -0.413412 z"
         style="font-style:normal;font-variant:normal;font-weight:normal;font-stretch:normal;font-size:10.58333302px;font-family:'Tibetan Machine Uni';-inkscape-font-specification:'Tibetan Machine Uni, Normal';font-variant-ligatures:normal;font-variant-caps:normal;font-variant-numeric:normal;font-feature-settings:normal;text-align:start;writing-mode:lr-tb;text-anchor:start;stroke-width:0.26458332px"
         id="path892" />
      <path
         d="m 58.434233,73.372447 v 1.808675 h -0.382406 q -0.134358,-0.37207 -0.248047,-0.568441 -0.103352,-0.206706 -0.279052,-0.382405 -0.465088,-0.434082 -1.054199,-0.434082 -0.454753,0 -0.733806,0.217041 -0.268717,0.206705 -0.268717,0.537434 0,0.1757 0.09302,0.33073 0.103353,0.155029 0.279053,0.237711 0.06201,0.04134 0.144694,0.07235 0.09302,0.03101 0.237712,0.07235 0.144694,0.03101 0.37207,0.08268 0.227376,0.05168 0.578776,0.124023 0.248047,0.05168 0.413411,0.103353 0.1757,0.04134 0.299724,0.103353 0.134358,0.05168 0.227376,0.113688 0.103353,0.06201 0.19637,0.144694 0.444418,0.37207 0.444418,1.09554 0,0.37207 -0.124024,0.682129 -0.124023,0.310059 -0.361735,0.5271 -0.227376,0.217041 -0.558105,0.330729 -0.320394,0.124023 -0.713135,0.124023 -0.816487,0 -1.477946,-0.527099 l -0.382405,0.423746 H 54.765206 V 76.56605 h 0.423747 q 0.19637,0.816488 0.661458,1.240235 0.475424,0.413411 1.157552,0.413411 0.485759,0 0.785482,-0.237712 0.299723,-0.237711 0.299723,-0.620117 0,-0.330729 -0.258382,-0.516764 -0.258382,-0.186035 -0.89917,-0.330729 L 56.35684,76.380015 q -0.248046,-0.05168 -0.423746,-0.103353 -0.165365,-0.05168 -0.299724,-0.103353 -0.124023,-0.06201 -0.227376,-0.124023 -0.103353,-0.07235 -0.19637,-0.165365 -0.372071,-0.341064 -0.372071,-0.992187 0,-0.3514 0.113688,-0.630453 0.113689,-0.289388 0.320394,-0.496093 0.206706,-0.206706 0.496094,-0.320394 0.289388,-0.113688 0.651123,-0.113688 0.403076,0 0.713135,0.103353 0.310058,0.09302 0.609782,0.330729 l 0.310058,-0.392741 z"
         style="font-style:normal;font-variant:normal;font-weight:normal;font-stretch:normal;font-size:10.58333302px;font-family:'Tibetan Machine Uni';-inkscape-font-specification:'Tibetan Machine Uni, Normal';font-variant-ligatures:normal;font-variant-caps:normal;font-variant-numeric:normal;font-feature-settings:normal;text-align:start;writing-mode:lr-tb;text-anchor:start;stroke-width:0.26458332px"
         id="path894" />
      <path
         d="m 61.328112,71.346731 v 2.149739 h 1.591634 v 0.465088 h -1.591634 v 2.945557 q 0,0.589111 0.103353,0.806152 0.05168,0.144694 0.196371,0.237712 0.155029,0.08268 0.341064,0.08268 0.806152,0 0.837158,-1.467611 h 0.454753 q 0.02067,0.08268 0.02067,0.144694 0,0.05168 0,0.09302 0,0.454752 -0.144694,0.857829 -0.144694,0.403076 -0.423746,0.671793 -0.1757,0.1757 -0.454753,0.268718 -0.268717,0.09302 -0.578776,0.09302 -0.971517,0 -1.240234,-0.702799 -0.04134,-0.09302 -0.06201,-0.196371 -0.02067,-0.113688 -0.04134,-0.258382 -0.01034,-0.144694 -0.02067,-0.341064 0,-0.206706 0,-0.485759 V 73.961558 H 59.42642 v -0.434082 q 1.302246,-0.07235 1.457275,-2.180745 z"
         style="font-style:normal;font-variant:normal;font-weight:normal;font-stretch:normal;font-size:10.58333302px;font-family:'Tibetan Machine Uni';-inkscape-font-specification:'Tibetan Machine Uni, Normal';font-variant-ligatures:normal;font-variant-caps:normal;font-variant-numeric:normal;font-feature-settings:normal;text-align:start;writing-mode:lr-tb;text-anchor:start;stroke-width:0.26458332px"
         id="path896" />
      <path
         d="m 65.679268,77.630585 q 0,0.165364 0.03101,0.268717 0.03101,0.09302 0.113688,0.155029 0.09302,0.05168 0.248047,0.07235 0.165364,0.01034 0.434082,0.01034 h 0.07235 v 0.392741 H 63.76724 v -0.392741 h 0.08268 q 0.258382,0 0.413412,-0.01034 0.165364,-0.02067 0.248046,-0.07235 0.09302,-0.06201 0.113689,-0.155029 0.03101,-0.103353 0.03101,-0.268717 v -3.017904 q 0,-0.1757 -0.02067,-0.279053 -0.01033,-0.113688 -0.06201,-0.165364 -0.05168,-0.06201 -0.144694,-0.08268 -0.08268,-0.02067 -0.237711,-0.02067 h -0.547771 v -0.454753 l 2.036052,-0.113688 z m -0.506429,-6.84196 q 0.258382,0 0.434082,0.186035 0.186035,0.186036 0.186035,0.444418 0,0.268717 -0.186035,0.454752 -0.1757,0.1757 -0.444417,0.1757 -0.268718,0 -0.444418,-0.186035 -0.165364,-0.186035 -0.165364,-0.444417 0,-0.258382 0.175699,-0.444418 0.1757,-0.186035 0.444418,-0.186035 z"
         style="font-style:normal;font-variant:normal;font-weight:normal;font-stretch:normal;font-size:10.58333302px;font-family:'Tibetan Machine Uni';-inkscape-font-specification:'Tibetan Machine Uni, Normal';font-variant-ligatures:normal;font-variant-caps:normal;font-variant-numeric:normal;font-feature-settings:normal;text-align:start;writing-mode:lr-tb;text-anchor:start;stroke-width:0.26458332px"
         id="path898" />
      <path
         d="m 67.146879,73.610158 1.870686,-0.113688 v 0.868164 q 0.361735,-0.537435 0.775147,-0.785481 0.413411,-0.248047 0.930176,-0.248047 0.485758,0 0.868164,0.227376 0.39274,0.217041 0.599446,0.609782 0.07235,0.134359 0.113688,0.248047 0.05168,0.113688 0.07235,0.258382 0.02067,0.144694 0.03101,0.341064 0.01033,0.196371 0.01033,0.485759 v 2.129069 q 0,0.165364 0.03101,0.268717 0.03101,0.09302 0.113688,0.155029 0.08268,0.05168 0.237712,0.07235 0.165365,0.01034 0.423747,0.01034 h 0.05168 v 0.392741 h -2.738851 v -0.392741 h 0.04134 q 0.268717,0 0.423746,-0.01034 0.165365,-0.02067 0.248047,-0.07235 0.09302,-0.06201 0.124024,-0.155029 0.03101,-0.103353 0.03101,-0.268717 v -2.180746 q 0,-0.392741 -0.06201,-0.651123 -0.06201,-0.258382 -0.186035,-0.434082 -0.124024,-0.165364 -0.341065,-0.268717 -0.206706,-0.113688 -0.413411,-0.113688 -0.361735,0 -0.692464,0.227376 -0.320394,0.227376 -0.496094,0.599447 -0.08268,0.19637 -0.144694,0.537435 -0.05168,0.330729 -0.05168,0.733805 v 1.550293 q 0,0.165364 0.03101,0.268717 0.03101,0.09302 0.113688,0.155029 0.09302,0.05168 0.248047,0.07235 0.165365,0.01034 0.434082,0.01034 h 0.04134 v 0.392741 h -2.73885 v -0.392741 h 0.04134 q 0.258382,0 0.423746,-0.01034 0.165365,-0.02067 0.248047,-0.07235 0.08268,-0.06201 0.113688,-0.155029 0.03101,-0.103353 0.03101,-0.268717 v -3.017904 q 0,-0.1757 -0.02067,-0.279053 -0.01034,-0.113688 -0.06201,-0.165364 -0.05168,-0.06201 -0.144694,-0.08268 -0.08268,-0.02067 -0.237712,-0.02067 h -0.39274 z"
         style="font-style:normal;font-variant:normal;font-weight:normal;font-stretch:normal;font-size:10.58333302px;font-family:'Tibetan Machine Uni';-inkscape-font-specification:'Tibetan Machine Uni, Normal';font-variant-ligatures:normal;font-variant-caps:normal;font-variant-numeric:normal;font-feature-settings:normal;text-align:start;writing-mode:lr-tb;text-anchor:start;stroke-width:0.26458332px"
         id="path900" />
      <path
         d="m 78.704487,77.527232 q 0,0.1757 0.02067,0.279053 0.03101,0.09302 0.134359,0.144694 0.103353,0.05168 0.289388,0.07235 0.196371,0.01033 0.5271,0.01033 h 0.19637 v 0.496094 h -3.534668 v -0.496094 h 0.186035 q 0.33073,0 0.5271,-0.01033 0.19637,-0.02067 0.289388,-0.07235 0.103353,-0.05168 0.134359,-0.144694 0.03101,-0.103353 0.03101,-0.279053 V 71.69813 q 0,-0.165364 -0.03101,-0.258382 -0.03101,-0.103353 -0.134359,-0.155029 -0.09302,-0.06201 -0.289388,-0.07235 -0.19637,-0.02067 -0.5271,-0.02067 h -0.186035 v -0.475423 h 3.731039 q 1.374593,0 2.108398,0.506429 0.744141,0.496094 0.744141,1.436605 0,0.816488 -0.568441,1.291911 -0.558106,0.465088 -1.746664,0.630452 0.630453,0.165365 0.971517,0.558106 0.3514,0.382405 0.537435,1.116211 l 0.1757,0.692464 q 0.144694,0.558105 0.248047,0.754476 0.113688,0.186035 0.299723,0.186035 0.217041,0 0.320394,-0.258382 0.113688,-0.258382 0.134359,-0.826823 h 0.465088 q -0.03101,0.981852 -0.361735,1.426269 -0.320394,0.444418 -0.992188,0.444418 -0.640788,0 -0.961181,-0.382406 -0.320394,-0.382406 -0.413412,-1.302246 l -0.06201,-0.558105 q -0.06201,-0.537435 -0.186035,-0.857829 -0.124023,-0.330729 -0.361735,-0.506429 -0.186035,-0.15503 -0.485758,-0.237712 -0.289388,-0.09302 -0.599447,-0.09302 h -0.630452 z m 1.178222,-3.286621 q 0.392741,0 0.733806,-0.09302 0.351399,-0.09302 0.558105,-0.268717 0.423747,-0.361735 0.423747,-1.219564 0,-1.467611 -1.570964,-1.467611 h -0.578776 q -0.175699,0 -0.289388,0.01034 -0.103353,0 -0.1757,0.01033 -0.06201,0.01033 -0.103352,0.03101 -0.03101,0.01033 -0.06201,0.03101 -0.04134,0.03101 -0.07235,0.06201 -0.02067,0.02067 -0.03101,0.08268 -0.01033,0.05168 -0.01033,0.144694 0,0.09302 0,0.248047 v 2.428792 z"
         style="font-style:normal;font-variant:normal;font-weight:normal;font-stretch:normal;font-size:10.58333302px;font-family:'Tibetan Machine Uni';-inkscape-font-specification:'Tibetan Machine Uni, Normal';font-variant-ligatures:normal;font-variant-caps:normal;font-variant-numeric:normal;font-feature-settings:normal;text-align:start;writing-mode:lr-tb;text-anchor:start;stroke-width:0.26458332px"
         id="path902" />
      <path
         d="m 86.083881,77.630585 q 0,0.165364 0.03101,0.268717 0.03101,0.09302 0.113688,0.155029 0.09302,0.05168 0.248047,0.07235 0.165365,0.01034 0.434082,0.01034 h 0.07235 v 0.392741 h -2.811198 v -0.392741 h 0.08268 q 0.258382,0 0.413411,-0.01034 0.165365,-0.02067 0.248047,-0.07235 0.09302,-0.06201 0.113688,-0.155029 0.03101,-0.103353 0.03101,-0.268717 v -3.017904 q 0,-0.1757 -0.02067,-0.279053 -0.01034,-0.113688 -0.06201,-0.165364 -0.05168,-0.06201 -0.144694,-0.08268 -0.08268,-0.02067 -0.237712,-0.02067 h -0.54777 v -0.454753 l 2.036051,-0.113688 z m -0.506429,-6.84196 q 0.258382,0 0.434082,0.186035 0.186035,0.186036 0.186035,0.444418 0,0.268717 -0.186035,0.454752 -0.1757,0.1757 -0.444417,0.1757 -0.268717,0 -0.444417,-0.186035 -0.165365,-0.186035 -0.165365,-0.444417 0,-0.258382 0.1757,-0.444418 0.1757,-0.186035 0.444417,-0.186035 z"
         style="font-style:normal;font-variant:normal;font-weight:normal;font-stretch:normal;font-size:10.58333302px;font-family:'Tibetan Machine Uni';-inkscape-font-specification:'Tibetan Machine Uni, Normal';font-variant-ligatures:normal;font-variant-caps:normal;font-variant-numeric:normal;font-feature-settings:normal;text-align:start;writing-mode:lr-tb;text-anchor:start;stroke-width:0.26458332px"
         id="path904" />
      <path
         d="m 87.344786,70.674937 1.860352,-0.113688 v 3.607015 q 0.310058,-0.465088 0.640788,-0.651123 0.341064,-0.186035 0.837158,-0.186035 0.485758,0 0.888834,0.19637 0.413412,0.196371 0.7028,0.54777 0.299723,0.3514 0.454752,0.837158 0.165365,0.485759 0.165365,1.064535 0,0.589111 -0.1757,1.085205 -0.1757,0.496094 -0.496094,0.868164 -0.310058,0.361735 -0.733805,0.568441 -0.423747,0.19637 -0.91984,0.19637 -0.506429,0 -0.909506,-0.206706 -0.39274,-0.206705 -0.72347,-0.651123 l -0.527099,0.847494 h -0.413412 q 0.05168,-0.237712 0.08268,-0.496094 0.04134,-0.268717 0.06201,-0.599446 0.03101,-0.33073 0.04134,-0.744141 0.01033,-0.413411 0.01033,-0.961182 v -4.196126 q 0,-0.3514 -0.09302,-0.444417 -0.08268,-0.103353 -0.37207,-0.103353 h -0.382406 z m 3.131592,3.193604 q -0.651123,0 -0.992187,0.578776 -0.33073,0.56844 -0.33073,1.653645 0,1.002523 0.361735,1.560629 0.361735,0.558105 1.002523,0.558105 0.599447,0 0.919841,-0.54777 0.320394,-0.558106 0.320394,-1.591634 0,-1.064535 -0.33073,-1.632975 -0.330729,-0.578776 -0.950846,-0.578776 z"
         style="font-style:normal;font-variant:normal;font-weight:normal;font-stretch:normal;font-size:10.58333302px;font-family:'Tibetan Machine Uni';-inkscape-font-specification:'Tibetan Machine Uni, Normal';font-variant-ligatures:normal;font-variant-caps:normal;font-variant-numeric:normal;font-feature-settings:normal;text-align:start;writing-mode:lr-tb;text-anchor:start;stroke-width:0.26458332px"
         id="path906" />
      <path
         d="m 94.806863,76.100962 v 0.15503 q 0,0.382405 0.06201,0.651123 0.07235,0.268717 0.206706,0.496093 0.423746,0.7028 1.229899,0.7028 0.54777,0 0.91984,-0.258382 0.37207,-0.268718 0.7028,-0.89917 l 0.382405,0.217041 q -0.661458,1.529622 -2.211751,1.529622 -0.54777,0 -1.002523,-0.186035 -0.444417,-0.186035 -0.764811,-0.516764 -0.320394,-0.330729 -0.496094,-0.795817 -0.1757,-0.475423 -0.1757,-1.054199 0,-0.599447 0.1757,-1.116211 0.186035,-0.516765 0.506429,-0.888835 0.330729,-0.382406 0.775147,-0.589111 0.444417,-0.217041 0.961181,-0.217041 0.496094,0 0.89917,0.206705 0.413412,0.196371 0.7028,0.568441 0.299723,0.361735 0.465088,0.878499 0.165364,0.50643 0.165364,1.116211 z m 1.901693,-0.475423 q 0.268717,0 0.351399,-0.08268 0.08268,-0.08268 0.08268,-0.320394 0,-0.651123 -0.299724,-1.043864 -0.289388,-0.392741 -0.785481,-0.392741 -0.764811,0 -1.095541,0.961182 -0.08268,0.237711 -0.124023,0.434082 -0.03101,0.19637 -0.03101,0.444417 z"
         style="font-style:normal;font-variant:normal;font-weight:normal;font-stretch:normal;font-size:10.58333302px;font-family:'Tibetan Machine Uni';-inkscape-font-specification:'Tibetan Machine Uni, Normal';font-variant-ligatures:normal;font-variant-caps:normal;font-variant-numeric:normal;font-feature-settings:normal;text-align:start;writing-mode:lr-tb;text-anchor:start;stroke-width:0.26458332px"
         id="path908" />
      <path
         d="m 100.92535,77.630585 q 0,0.165364 0.031,0.268717 0.031,0.09302 0.11368,0.155029 0.093,0.05168 0.24805,0.07235 0.16537,0.01034 0.43408,0.01034 h 0.0724 v 0.392741 h -2.811198 v -0.392741 h 0.08268 q 0.258383,0 0.413412,-0.01034 0.165364,-0.02067 0.248047,-0.07235 0.09302,-0.06201 0.113688,-0.155029 0.03101,-0.103353 0.03101,-0.268717 v -3.017904 q 0,-0.1757 -0.02067,-0.279053 -0.01033,-0.113688 -0.06201,-0.165364 -0.05168,-0.06201 -0.144695,-0.08268 -0.08268,-0.02067 -0.237711,-0.02067 h -0.54777 v -0.454753 l 2.036051,-0.113688 z m -0.50643,-6.84196 q 0.25838,0 0.43408,0.186035 0.18604,0.186036 0.18604,0.444418 0,0.268717 -0.18604,0.454752 -0.1757,0.1757 -0.44441,0.1757 -0.26872,0 -0.444421,-0.186035 -0.165365,-0.186035 -0.165365,-0.444417 0,-0.258382 0.1757,-0.444418 0.175696,-0.186035 0.444416,-0.186035 z"
         style="font-style:normal;font-variant:normal;font-weight:normal;font-stretch:normal;font-size:10.58333302px;font-family:'Tibetan Machine Uni';-inkscape-font-specification:'Tibetan Machine Uni, Normal';font-variant-ligatures:normal;font-variant-caps:normal;font-variant-numeric:normal;font-feature-settings:normal;text-align:start;writing-mode:lr-tb;text-anchor:start;stroke-width:0.26458332px"
         id="path910" />
      <path
         d="m 102.33095,73.610158 1.92236,-0.113688 v 1.322917 q 0.25838,-0.713135 0.6718,-1.09554 0.42374,-0.392741 0.94051,-0.392741 0.43408,0 0.69246,0.237711 0.25838,0.227377 0.25838,0.620117 0,0.33073 -0.18603,0.537435 -0.18604,0.206706 -0.47542,0.206706 -0.25839,0 -0.43409,-0.165365 -0.16536,-0.165364 -0.16536,-0.434082 0,-0.155029 0.0413,-0.248046 0.0413,-0.103353 0.15503,-0.237712 -0.69247,0.08268 -1.09554,0.992187 -0.20671,0.465088 -0.31006,1.0542 -0.093,0.578776 -0.093,1.198893 v 0.537435 q 0,0.165364 0.0207,0.268717 0.031,0.09302 0.11369,0.155029 0.093,0.05168 0.24805,0.07235 0.15503,0.01034 0.41341,0.01034 h 0.21704 v 0.392741 h -2.89388 v -0.392741 h 0.0517 q 0.25838,0 0.41341,-0.01034 0.16536,-0.02067 0.24805,-0.07235 0.0827,-0.06201 0.11368,-0.155029 0.031,-0.103353 0.031,-0.268717 v -3.017904 q 0,-0.1757 -0.0207,-0.279053 -0.0103,-0.113688 -0.062,-0.165364 -0.0413,-0.06201 -0.13436,-0.08268 -0.0827,-0.02067 -0.23771,-0.02067 h -0.44442 z"
         style="font-style:normal;font-variant:normal;font-weight:normal;font-stretch:normal;font-size:10.58333302px;font-family:'Tibetan Machine Uni';-inkscape-font-specification:'Tibetan Machine Uni, Normal';font-variant-ligatures:normal;font-variant-caps:normal;font-variant-numeric:normal;font-feature-settings:normal;text-align:start;writing-mode:lr-tb;text-anchor:start;stroke-width:0.26458332px"
         id="path912" />
      <path
         d="m 109.64833,73.331106 q 0.47543,0 0.88884,0.217041 0.42375,0.206705 0.7338,0.56844 0.3204,0.361735 0.4961,0.847494 0.18603,0.485758 0.18603,1.043864 0,0.558105 -0.18603,1.054199 -0.1757,0.485758 -0.4961,0.847493 -0.31005,0.361735 -0.74414,0.578776 -0.42374,0.206706 -0.9095,0.206706 -0.48576,0 -0.90951,-0.206706 -0.42374,-0.217041 -0.74414,-0.578776 -0.32039,-0.361735 -0.50643,-0.847493 -0.1757,-0.485758 -0.1757,-1.043864 0,-0.568441 0.18604,-1.054199 0.18603,-0.496094 0.49609,-0.857829 0.3204,-0.361735 0.75448,-0.568441 0.43408,-0.206705 0.93017,-0.206705 z m 0,0.454752 q -0.62011,0 -0.93017,0.568441 -0.29972,0.558105 -0.29972,1.663981 0,1.07487 0.29972,1.643311 0.31006,0.558105 0.89917,0.558105 0.58911,0 0.89917,-0.558105 0.31006,-0.568441 0.31006,-1.653646 0,-1.07487 -0.31006,-1.643311 -0.29972,-0.578776 -0.86817,-0.578776 z"
         style="font-style:normal;font-variant:normal;font-weight:normal;font-stretch:normal;font-size:10.58333302px;font-family:'Tibetan Machine Uni';-inkscape-font-specification:'Tibetan Machine Uni, Normal';font-variant-ligatures:normal;font-variant-caps:normal;font-variant-numeric:normal;font-feature-settings:normal;text-align:start;writing-mode:lr-tb;text-anchor:start;stroke-width:0.26458332px"
         id="path914" />
    </g>
  </g>
</svg>
